<svg xmlns="http://www.w3.org/2000/svg" viewBox="0 0 64 64" width="64" height="64" shape-rendering="crispEdges"><title>capybara 4 idle frame 1</title><rect x="18" y="59" width="29" height="3" fill="#161812" opacity="0.34"/><path d="M38 39h7v3h5v4h4v6h-4v4h-5v-2h-5v-4h-3v-7h1z" fill="#282923"/><path d="M40 42h5v3h5v4h3v3h-3v3h-4v-2h-5v-4h-2v-5h1z" fill="#c9956c"/><rect x="43" y="46" width="4" height="3" fill="#c9956c"/><path d="M20 18h5v-4h5v4h13v-2h5v5h4v9h-2v6H22v-3h-4v-6h-2v-6h4z" fill="#282923"/><path d="M22 19h4v-3h3v4h15v-2h3v4h3v8h-2v5H23v-3h-3v-6h-2v-5h4z" fill="#a8734f"/><rect x="24" y="16" width="3" height="3" fill="#c9956c"/><rect x="44" y="16" width="3" height="3" fill="#c9956c"/><path d="M22 27h22v5h-3v3h-5v2H27v-2h-4v-3h-2z" fill="#c9956c"/><rect x="26" y="24" width="2" height="2" fill="#282923"/><rect x="39" y="24" width="2" height="2" fill="#282923"/><path d="M43 29h5v2h-5zM45 31h3v2h-3z" fill="#282923"/><path d="M18 41h5v-3h19v3h4v12h-3v5H24v-3h-5v-4h-2V43h1z" fill="#282923"/><path d="M21 42h5v-2h15v2h3v11h-3v4H25v-3h-4v-4h-2v-7h2z" fill="#a8734f"/><path d="M27 43h10v11H27z" fill="#c9956c"/><rect x="22" y="44" width="4" height="4" fill="#c9956c"/><rect x="39" y="44" width="4" height="4" fill="#c9956c"/><path d="M24 55h7v4h-9v-3h2zM36 55h7v2h2v2h-9z" fill="#282923"/><path d="M25 56h5v2h-6zM37 56h5v2h-6z" fill="#a8734f"/><path d="M45 31h3v3h-3zM48 34h2v2h-2z" fill="#85a49a"/></svg>